<svg id="Layer_1" data-name="Layer 1" xmlns="http://www.w3.org/2000/svg" viewBox="0 0 421 149"><defs><style>.cls-1{fill:#8cc63f;}.cls-2{fill:#706e73;}.cls-3{fill:#726f73;}</style></defs><polygon class="cls-1" points="302.94 67.05 311.61 62.04 311.61 72.06 302.94 77.07 302.94 67.05"/><path class="cls-1" d="M401.82,88.89v22.92l-5.2,1.9V48l-8.68-5v0l-5.19-3v0l-8.68-5v86.92l-4.63,1.69V107.68l-12.65,4.61h-.14l-2.85-1V15.67L344,21.33v95.59l12.73,4.63,2.91-1.06v6.68l-2.92,1.06-.09,0-13.17-4.8-4.09-1.49v-5.83l-8.68-3.16V128h.06l26,9.46,26-9.46h.05l27.74-10.11v-24Zm-13.88,28-5.19,1.89V50.06l5.19,3Z"/><polygon class="cls-1" points="359.63 15.67 369.44 21.33 369.44 102.14 359.63 105.71 359.63 15.67"/><rect class="cls-1" x="353.8" y="4.47" width="5.8" height="11.2"/><polygon class="cls-1" points="302.94 117.88 302.94 80.31 311.61 75.3 311.61 111.81 316.81 113.71 316.81 48.01 325.48 43 325.48 74.19 330.68 76.08 330.68 40 339.36 34.99 339.36 88.48 330.68 85.32 330.42 85.22 325.48 83.42 325.48 126.09 302.94 117.88"/><polygon class="cls-1" points="401.82 72.06 401.82 61.99 410.49 67 410.49 77.07 401.82 72.06"/><polygon class="cls-1" points="401.82 85.32 401.82 75.3 410.49 80.31 410.49 90.33 401.82 85.32"/><polygon class="cls-1" points="330.75 109.8 330.75 100.57 339.43 103.73 339.43 112.96 330.75 109.8"/><polygon class="cls-1" points="330.75 97.67 330.75 88.45 339.43 91.6 339.43 100.83 330.75 97.67"/><path class="cls-2" d="M414.56,59.09v62.52l-58,21.56v1.36h.23l59.28-21.47v-2.2h0V59.09Z"/><path class="cls-2" d="M298.71,59.09h-1.55v62.52h0v1.44l59.43,21.48h.19v-1.35l-58.05-21.56Z"/><polyline class="cls-2" points="416.11 18.78 416.11 20.98 416.11 20.98 416.11 82.74 414.56 82.74 414.56 20.22"/><polyline class="cls-2" points="298.71 20.22 298.71 82.74 297.16 82.74 297.16 20.22 297.14 20.22 297.14 18.78"/><polyline class="cls-2" points="297.13 18.78 298.55 18.78 298.55 18.77 338.68 18.77 338.68 20.32 298.06 20.32"/><polyline class="cls-2" points="416.05 18.78 414.62 18.78 414.62 18.77 374.49 18.77 374.49 20.32 415.12 20.32"/><path class="cls-3" d="M22.22,45.52V57.59h1.66v1.66H10.56a4.76,4.76,0,0,1-3.2-.85,2.8,2.8,0,0,1-1-2.19,5.64,5.64,0,0,1,.1-1.08A4.71,4.71,0,0,1,6.9,54l2.58-5.79A4.17,4.17,0,0,1,11,46.27a3.94,3.94,0,0,1,2.37-.75ZM16.39,57.59V47.18H15.14l-3.75,8.87a1.72,1.72,0,0,0-.12.58.73.73,0,0,0,.52.79,3,3,0,0,0,.85.17Zm-5-16.86a1.66,1.66,0,0,1,.67-1.33,2.49,2.49,0,0,1,1.62-.54,2.52,2.52,0,0,1,1.63.54,1.67,1.67,0,0,1,0,2.66,2.52,2.52,0,0,1-1.63.54,2.49,2.49,0,0,1-1.62-.54A1.66,1.66,0,0,1,11.39,40.73Zm5.42,0a1.65,1.65,0,0,1,.66-1.33,2.72,2.72,0,0,1,3.25,0,1.67,1.67,0,0,1,0,2.66,2.72,2.72,0,0,1-3.25,0A1.65,1.65,0,0,1,16.81,40.73Z"/><path class="cls-3" d="M32.21,59.25H23.88A1.43,1.43,0,0,1,23,59a.69.69,0,0,1,0-1.16,1.43,1.43,0,0,1,.93-.25h8.33Z"/><path class="cls-3" d="M37.62,57.59V45.52h5.83v10.4a3.33,3.33,0,0,1-3.33,3.33H32.21a1.47,1.47,0,0,1-.94-.25.71.71,0,0,1-.31-.58.75.75,0,0,1,.31-.56,1.41,1.41,0,0,1,.94-.27Zm-6.25,7.24A1.66,1.66,0,0,1,32,63.5,2.49,2.49,0,0,1,33.66,63a2.52,2.52,0,0,1,1.63.54,1.67,1.67,0,0,1,0,2.66,2.53,2.53,0,0,1-1.63.55A2.5,2.5,0,0,1,32,66.16,1.66,1.66,0,0,1,31.37,64.83Zm5.42,0a1.65,1.65,0,0,1,.66-1.33,2.72,2.72,0,0,1,3.25,0,1.67,1.67,0,0,1,0,2.66,2.68,2.68,0,0,1-3.25,0A1.65,1.65,0,0,1,36.79,64.83Z"/><path class="cls-3" d="M52.6,45.52a.79.79,0,0,1,.59.25.81.81,0,0,1,.25.58v12.9a8.51,8.51,0,0,1-.59,3.31,6.5,6.5,0,0,1-1.6,2.33,6.59,6.59,0,0,1-2.35,1.4,8.79,8.79,0,0,1-2.83.46,10.77,10.77,0,0,1-2.94-.42,13,13,0,0,1-2.93-1.25L41,63.42a7.19,7.19,0,0,0,1.6.6,7.29,7.29,0,0,0,1.77.23,3.94,3.94,0,0,0,2.25-.65,2.53,2.53,0,0,0,1-2.27v-15a.85.85,0,0,1,.83-.83Z"/><path class="cls-3" d="M61.76,36.36a.77.77,0,0,1,.58.25.79.79,0,0,1,.25.58v20.4h1.67v1.66H57.6a.85.85,0,0,1-.83-.83V37.19a.79.79,0,0,1,.25-.58.77.77,0,0,1,.58-.25Z"/><path class="cls-3" d="M72.58,59.25H64.26a1.47,1.47,0,0,1-.94-.25.7.7,0,0,1,0-1.16,1.47,1.47,0,0,1,.94-.25h8.32Z"/><path class="cls-3" d="M72.58,59.25a1.43,1.43,0,0,1-.93-.25.73.73,0,0,1-.32-.58.77.77,0,0,1,.32-.56,1.38,1.38,0,0,1,.93-.27h1.67V51.68A5,5,0,0,1,75,48.89a5.31,5.31,0,0,1,1.85-1.77,8.2,8.2,0,0,1,2.43-.92,12.35,12.35,0,0,1,2.48-.27,11.61,11.61,0,0,1,2.64.32,6.76,6.76,0,0,1,2.42,1,5.75,5.75,0,0,1,1.75,1.91,6,6,0,0,1,.68,3v5.41H90.9v1.66H88.82a6.4,6.4,0,0,1-2.94,1.59,15.11,15.11,0,0,1-3.93.49,15.89,15.89,0,0,1-4.1-.52,7.75,7.75,0,0,1-3.19-1.56Zm7.5-.2c0,.22.17.38.52.47a4,4,0,0,0,1.14.15,4.16,4.16,0,0,0,1.15-.15c.34-.09.52-.25.52-.47V48.76a1,1,0,0,0-.52-.87,2.37,2.37,0,0,0-1.15-.29,2.3,2.3,0,0,0-1.14.29.94.94,0,0,0-.52.87Z"/><path class="cls-3" d="M99.22,59.25H90.9A1.47,1.47,0,0,1,90,59a.7.7,0,0,1,0-1.16,1.47,1.47,0,0,1,.94-.25h8.32Z"/><path class="cls-3" d="M107.55,45.52a.79.79,0,0,1,.58.25.77.77,0,0,1,.25.58V57.59h3.33v1.66H99.22a1.43,1.43,0,0,1-.93-.25.69.69,0,0,1,0-1.16,1.43,1.43,0,0,1,.93-.25h3.33V46.35a.81.81,0,0,1,.25-.58.79.79,0,0,1,.59-.25Zm-8.12-4a1.65,1.65,0,0,1,.67-1.33,2.7,2.7,0,0,1,3.24,0,1.65,1.65,0,0,1,.67,1.33,1.62,1.62,0,0,1-.67,1.33,2.66,2.66,0,0,1-3.24,0A1.62,1.62,0,0,1,99.43,41.56Zm2.71-4.16a1.65,1.65,0,0,1,.66-1.33,2.72,2.72,0,0,1,3.25,0,1.66,1.66,0,0,1,0,2.66,2.72,2.72,0,0,1-3.25,0A1.65,1.65,0,0,1,102.14,37.4Zm2.7,4.16a1.65,1.65,0,0,1,.67-1.33,2.7,2.7,0,0,1,3.24,0,1.65,1.65,0,0,1,.67,1.33,1.62,1.62,0,0,1-.67,1.33,2.66,2.66,0,0,1-3.24,0A1.62,1.62,0,0,1,104.84,41.56Z"/><path class="cls-3" d="M120,59.25h-8.33a1.47,1.47,0,0,1-.94-.25.7.7,0,0,1,0-1.16,1.47,1.47,0,0,1,.94-.25H120Z"/><path class="cls-3" d="M128.36,45.52a.85.85,0,0,1,.83.83V57.59h3.33v1.66H120a1.45,1.45,0,0,1-.93-.25.7.7,0,0,1,0-1.16,1.45,1.45,0,0,1,.93-.25h3.33V46.35a.85.85,0,0,1,.84-.83Zm-8.12-4.79a1.63,1.63,0,0,1,.67-1.33,2.47,2.47,0,0,1,1.62-.54,2.52,2.52,0,0,1,1.63.54,1.67,1.67,0,0,1,0,2.66,2.52,2.52,0,0,1-1.63.54,2.47,2.47,0,0,1-1.62-.54A1.63,1.63,0,0,1,120.24,40.73Zm5.41,0a1.66,1.66,0,0,1,.67-1.33,2.49,2.49,0,0,1,1.62-.54,2.52,2.52,0,0,1,1.63.54,1.67,1.67,0,0,1,0,2.66,2.52,2.52,0,0,1-1.63.54,2.49,2.49,0,0,1-1.62-.54A1.66,1.66,0,0,1,125.65,40.73Z"/><path class="cls-3" d="M132.52,59.25a1.43,1.43,0,0,1-.93-.25.69.69,0,0,1,0-1.16,1.43,1.43,0,0,1,.93-.25h3.33V46.35a.77.77,0,0,1,.25-.58.79.79,0,0,1,.58-.25h4.17a.79.79,0,0,1,.58.25.77.77,0,0,1,.25.58V57.59h2.5V46.35a.85.85,0,0,1,.83-.83h4.16a.85.85,0,0,1,.83.83V57.59h2.5V46.35a.77.77,0,0,1,.25-.58.79.79,0,0,1,.58-.25h4.17a.79.79,0,0,1,.58.25.77.77,0,0,1,.25.58v9.57A3.33,3.33,0,0,1,155,59.25Z"/><path class="cls-3" d="M166,38.44a1,1,0,0,1,.62.21,1,1,0,0,1,.38.62l2.54,17.9h-4.12a1.08,1.08,0,0,1-.63-.21.92.92,0,0,1-.37-.62l-2.54-17.9Zm11-2.08a.77.77,0,0,1,.58.25.79.79,0,0,1,.25.58v20.4a5,5,0,0,1-.5,2.37,4.15,4.15,0,0,1-1.33,1.54,5.26,5.26,0,0,1-1.93.83,10.31,10.31,0,0,1-2.32.25,16.95,16.95,0,0,1-7.15-1.66l.83-1.67a7,7,0,0,0,1.6.61,7.29,7.29,0,0,0,1.77.23,3.94,3.94,0,0,0,2.25-.65,2.53,2.53,0,0,0,.95-2.27v-20a.83.83,0,0,1,.25-.58.81.81,0,0,1,.59-.25Z"/><path class="cls-3" d="M186.22,36.36a.85.85,0,0,1,.83.83V58.42a.77.77,0,0,1-.25.58.79.79,0,0,1-.58.25h-4.16a.79.79,0,0,1-.59-.25.81.81,0,0,1-.25-.58V37.19a.83.83,0,0,1,.25-.58.79.79,0,0,1,.59-.25Z"/><path class="cls-3" d="M202.87,65.5a9.08,9.08,0,0,1-3.64-.63,6.34,6.34,0,0,1-2.29-1.56,5.45,5.45,0,0,1-1.21-2,6.43,6.43,0,0,1-.35-2V52.59a.79.79,0,0,1,.25-.58.76.76,0,0,1,.58-.25h4.16A.77.77,0,0,1,201,52a.79.79,0,0,1,.25.58v6.66a6.2,6.2,0,0,0,.19,1.44,4.71,4.71,0,0,0,.62,1.5,3.81,3.81,0,0,0,1.17,1.16,3.21,3.21,0,0,0,1.81.48h2.87V46.35a.81.81,0,0,1,.25-.58.79.79,0,0,1,.59-.25h4.16a.79.79,0,0,1,.58.25.77.77,0,0,1,.25.58V57.59h1.67v1.66h-1.67v2.92a3.35,3.35,0,0,1-3.33,3.33Zm-.63-24.77a1.66,1.66,0,0,1,.67-1.33,2.47,2.47,0,0,1,1.62-.54,2.52,2.52,0,0,1,1.63.54,1.67,1.67,0,0,1,0,2.66,2.52,2.52,0,0,1-1.63.54,2.47,2.47,0,0,1-1.62-.54A1.66,1.66,0,0,1,202.24,40.73Z"/><path class="cls-3" d="M223.68,59.25h-8.33a1.45,1.45,0,0,1-.93-.25.7.7,0,0,1,0-1.16,1.45,1.45,0,0,1,.93-.25h8.33Z"/><path class="cls-3" d="M232,45.52a.79.79,0,0,1,.59.25.81.81,0,0,1,.25.58V57.59h3.33v1.66H223.68a1.47,1.47,0,0,1-.94-.25.7.7,0,0,1,0-1.16,1.47,1.47,0,0,1,.94-.25H227V46.35a.77.77,0,0,1,.25-.58.79.79,0,0,1,.58-.25Zm-8.32,19.31a1.63,1.63,0,0,1,.67-1.33,2.7,2.7,0,0,1,3.24,0,1.66,1.66,0,0,1,0,2.66,2.66,2.66,0,0,1-3.24,0A1.63,1.63,0,0,1,223.68,64.83Zm5.41,0a1.63,1.63,0,0,1,.67-1.33,2.7,2.7,0,0,1,3.24,0,1.66,1.66,0,0,1,0,2.66,2.66,2.66,0,0,1-3.24,0A1.63,1.63,0,0,1,229.09,64.83Z"/><path class="cls-3" d="M237.66,46.52l10.62-10.66,2.87,2.91-8,8a3,3,0,0,1,.52,0h.52a8.79,8.79,0,0,1,2.83.45,6.59,6.59,0,0,1,2.35,1.4A6.37,6.37,0,0,1,251,51a8.51,8.51,0,0,1,.59,3.31v3.33h1.66v1.66H236.17a1.47,1.47,0,0,1-.94-.25.71.71,0,0,1-.31-.58.75.75,0,0,1,.31-.56,1.41,1.41,0,0,1,.94-.27h9.57V52.18a2.54,2.54,0,0,0-1-2.27,3.89,3.89,0,0,0-2.24-.65,6.56,6.56,0,0,0-2.25.42Z"/><path class="cls-3" d="M253.23,59.25a1.43,1.43,0,0,1-.93-.25.73.73,0,0,1-.32-.58.77.77,0,0,1,.32-.56,1.38,1.38,0,0,1,.93-.27h1.67V51.68a5,5,0,0,1,.73-2.79,5.31,5.31,0,0,1,1.85-1.77,8.2,8.2,0,0,1,2.43-.92,12.35,12.35,0,0,1,2.48-.27,11.61,11.61,0,0,1,2.64.32,6.76,6.76,0,0,1,2.42,1,5.75,5.75,0,0,1,1.75,1.91,6,6,0,0,1,.68,3v5.41h1.67v1.66h-2.08a6.45,6.45,0,0,1-2.94,1.59,15.11,15.11,0,0,1-3.93.49,15.89,15.89,0,0,1-4.1-.52,7.75,7.75,0,0,1-3.19-1.56Zm7.5-.2c0,.22.17.38.52.47a4.08,4.08,0,0,0,1.14.15,4.16,4.16,0,0,0,1.15-.15c.34-.09.52-.25.52-.47V48.76a1,1,0,0,0-.52-.87,2.37,2.37,0,0,0-1.15-.29,2.33,2.33,0,0,0-1.14.29.94.94,0,0,0-.52.87Z"/><path class="cls-3" d="M279.87,45.52a.85.85,0,0,1,.84.83v9.57a3.33,3.33,0,0,1-3.33,3.33h-5.83a1.47,1.47,0,0,1-.94-.25.71.71,0,0,1-.31-.58.75.75,0,0,1,.31-.56,1.41,1.41,0,0,1,.94-.27h3.33V46.35a.85.85,0,0,1,.83-.83Zm-8.11-4.79a1.65,1.65,0,0,1,.66-1.33,2.52,2.52,0,0,1,1.63-.54,2.49,2.49,0,0,1,1.62.54,1.67,1.67,0,0,1,0,2.66,2.49,2.49,0,0,1-1.62.54,2.52,2.52,0,0,1-1.63-.54A1.65,1.65,0,0,1,271.76,40.73Zm5.41,0a1.65,1.65,0,0,1,.66-1.33,2.52,2.52,0,0,1,1.63-.54,2.49,2.49,0,0,1,1.62.54,1.66,1.66,0,0,1,0,2.66,2.49,2.49,0,0,1-1.62.54,2.52,2.52,0,0,1-1.63-.54A1.65,1.65,0,0,1,277.17,40.73Z"/><path class="cls-3" d="M4.89,87.78H21.26v1.56H15.8v18.31a.79.79,0,0,1-.78.78h-3.9a.8.8,0,0,1-.78-.78V89.34H4.89Z"/><path class="cls-3" d="M30.61,98.15a1.46,1.46,0,0,0-.72-1.41,3.35,3.35,0,0,0-1.62-.39h-7V94.79h7c1,0,1.92,0,2.86.08a7.94,7.94,0,0,1,2.52.51,4,4,0,0,1,1.77,1.36,4.57,4.57,0,0,1,.68,2.69v9H23.59a3.11,3.11,0,0,1-3.11-3.11v-2.73a3.12,3.12,0,0,1,3.11-3.12h7Zm0,2.88H25.93v5.84h4.68Z"/><path class="cls-3" d="M44.63,107.65a.74.74,0,0,1-.23.55.78.78,0,0,1-.55.23H40a.79.79,0,0,1-.78-.78V94.79H58.66a3.14,3.14,0,0,1,3.12,3.12v9.74a.79.79,0,0,1-.78.78H57.1a.8.8,0,0,1-.78-.78V96.35H53.21v11.3a.75.75,0,0,1-.24.55.74.74,0,0,1-.54.23h-3.9a.74.74,0,0,1-.54-.23.75.75,0,0,1-.24-.55V96.35H44.63Z"/><path class="cls-3" d="M82.66,108.43H77.48a1,1,0,0,1-.7-.23,5.37,5.37,0,0,1-.47-.55l-6-7.05v7.05a.79.79,0,0,1-.78.78H65.68a.78.78,0,0,1-.55-.23.74.74,0,0,1-.23-.55V88.56a.74.74,0,0,1,.23-.55.78.78,0,0,1,.55-.23h3.89a.79.79,0,0,1,.78.78V99.12l6-7.05a5.37,5.37,0,0,1,.47-.55,1,1,0,0,1,.7-.23h5.18l-7.2,8.57Z"/><path class="cls-3" d="M90.46,90.51a.8.8,0,0,1,.78.78v.78a.71.71,0,0,1-.24.54.73.73,0,0,1-.54.24h-3.9a.82.82,0,0,1-.78-.78v-.78a.75.75,0,0,1,.24-.55.74.74,0,0,1,.54-.23Zm0,4.28a.82.82,0,0,1,.78.78v12.08a.8.8,0,0,1-.78.78h-3.9a.74.74,0,0,1-.54-.23.75.75,0,0,1-.24-.55V95.57A.73.73,0,0,1,86,95a.71.71,0,0,1,.54-.24Z"/><path class="cls-3" d="M99.81,107.65a.75.75,0,0,1-.24.55.74.74,0,0,1-.54.23h-3.9a.74.74,0,0,1-.54-.23.75.75,0,0,1-.24-.55V94.79h10.91a3,3,0,0,1,2.21.92,3,3,0,0,1,.91,2.2v9.74a.79.79,0,0,1-.78.78h-3.89a.76.76,0,0,1-.55-.23.74.74,0,0,1-.23-.55V96.35H99.81Z"/><path class="cls-3" d="M120.85,87.78a.79.79,0,0,1,.78.78v19.09a.79.79,0,0,1-.78.78H117a.74.74,0,0,1-.54-.23.75.75,0,0,1-.24-.55V88.56a.75.75,0,0,1,.24-.55.74.74,0,0,1,.54-.23Z"/><path class="cls-3" d="M130.2,107.65a.79.79,0,0,1-.78.78h-3.9a.78.78,0,0,1-.54-.23.75.75,0,0,1-.24-.55V94.79h10.91a3,3,0,0,1,2.21.92,3,3,0,0,1,.91,2.2v9.74a.74.74,0,0,1-.23.55.78.78,0,0,1-.55.23H134.1a.79.79,0,0,1-.78-.78V96.35H130.2Z"/><path class="cls-3" d="M144.89,108.43a.65.65,0,0,1-.51-.23,1.35,1.35,0,0,1-.27-.55l-2.22-12.86h4.83a.63.63,0,0,1,.51.24,1.31,1.31,0,0,1,.27.54l1.95,11.3,2-11.3a1.31,1.31,0,0,1,.27-.54.63.63,0,0,1,.51-.24H157l-2.22,12.86a1.37,1.37,0,0,1-.28.55.63.63,0,0,1-.5.23Z"/><path class="cls-3" d="M165.58,104.69a3.12,3.12,0,0,0,.2,1.25,1.4,1.4,0,0,0,.52.64,1.59,1.59,0,0,0,.76.25,8.25,8.25,0,0,0,.86,0h7v1.56h-7c-1,0-2,0-2.89-.08a8.15,8.15,0,0,1-2.49-.5,3.88,3.88,0,0,1-1.77-1.37,4.46,4.46,0,0,1-.68-2.68V97.91a3.12,3.12,0,0,1,3.11-3.12h9.35a3.12,3.12,0,0,1,3.12,3.12v2.34a3.12,3.12,0,0,1-3.12,3.12h-7Zm0-2.88h4.68V96.35h-4.68Z"/><path class="cls-3" d="M183.11,102.67a10.5,10.5,0,0,1-1.67-.51,5.69,5.69,0,0,1-1.37-.78,3.2,3.2,0,0,1-1.24-2.69,3.12,3.12,0,0,1,.62-2A4.12,4.12,0,0,1,181,95.48a7.07,7.07,0,0,1,2.08-.55,19,19,0,0,1,2.21-.14,22,22,0,0,1,4.11.39c1.36.26,2.51.54,3.45.82l-.78,2.15a13,13,0,0,0-2.34-.71,13.45,13.45,0,0,0-2.73-.31,3.79,3.79,0,0,0-1.79.39,1.26,1.26,0,0,0-.74,1.17,1,1,0,0,0,.35.8,2.78,2.78,0,0,0,.91.47,13.45,13.45,0,0,0,1.31.31l1.52.29a10.79,10.79,0,0,1,1.64.51,5.43,5.43,0,0,1,1.36.78,3.54,3.54,0,0,1,.93,1.11,3.18,3.18,0,0,1,.36,1.58,3.09,3.09,0,0,1-.63,2,4,4,0,0,1-1.56,1.17,7.39,7.39,0,0,1-2.08.55,18.89,18.89,0,0,1-2.2.13,21.84,21.84,0,0,1-4.11-.39,31.78,31.78,0,0,1-3.45-.82l.78-2.14a12.06,12.06,0,0,0,2.34.7,12.68,12.68,0,0,0,2.72.31,4,4,0,0,0,1.8-.38,1.26,1.26,0,0,0,.74-1.17.94.94,0,0,0-.35-.76,2.67,2.67,0,0,0-.94-.47,11.45,11.45,0,0,0-1.33-.31C184.1,102.91,183.61,102.8,183.11,102.67Z"/><path class="cls-3" d="M203.81,108.43c-1,0-1.95,0-2.89-.08a8.09,8.09,0,0,1-2.49-.5,4,4,0,0,1-1.78-1.37,4.53,4.53,0,0,1-.68-2.68V88.56a.75.75,0,0,1,.24-.55.74.74,0,0,1,.54-.23h3.9a.74.74,0,0,1,.54.23.75.75,0,0,1,.24.55v4.29h4.67v1.56h-4.67v10.28a3.15,3.15,0,0,0,.19,1.25,1.48,1.48,0,0,0,.53.64,1.59,1.59,0,0,0,.76.25,8.12,8.12,0,0,0,.86,0h1.55v1.56Z"/><path class="cls-3" d="M213.9,107.65a.8.8,0,0,1-.78.78h-3.9a.79.79,0,0,1-.78-.78V94.79h19.48a3,3,0,0,1,2.21.92,3,3,0,0,1,.91,2.2v9.74a.79.79,0,0,1-.78.78h-3.89a.78.78,0,0,1-.55-.23.74.74,0,0,1-.23-.55V96.35h-3.12v11.3a.75.75,0,0,1-.24.55.74.74,0,0,1-.54.23h-3.9a.74.74,0,0,1-.54-.23.75.75,0,0,1-.24-.55V96.35H213.9Z"/><path class="cls-3" d="M239.61,104.69a3.12,3.12,0,0,0,.2,1.25,1.46,1.46,0,0,0,.52.64,1.67,1.67,0,0,0,.76.25,8.25,8.25,0,0,0,.86,0h7v1.56h-7c-1,0-2,0-2.88-.08a8.16,8.16,0,0,1-2.5-.5,3.93,3.93,0,0,1-1.77-1.37,4.53,4.53,0,0,1-.68-2.68V97.91a3,3,0,0,1,.91-2.2,3,3,0,0,1,2.21-.92h9.35a3.12,3.12,0,0,1,3.11,3.12v2.34a3.12,3.12,0,0,1-3.11,3.12h-7Zm0-2.88h4.68V96.35h-4.68Z"/><path class="cls-3" d="M258.32,107.65a.8.8,0,0,1-.78.78h-3.9a.79.79,0,0,1-.78-.78V94.79h10.91a3.14,3.14,0,0,1,3.12,3.12v9.74a.75.75,0,0,1-.24.55.74.74,0,0,1-.54.23h-3.9a.74.74,0,0,1-.54-.23.75.75,0,0,1-.24-.55V96.35h-3.11Z"/><path class="cls-3" d="M277.84,108.43c-1,0-1.95,0-2.89-.08a8.15,8.15,0,0,1-2.49-.5,3.88,3.88,0,0,1-1.77-1.37,4.46,4.46,0,0,1-.68-2.68V88.56a.74.74,0,0,1,.23-.55.78.78,0,0,1,.55-.23h3.89a.79.79,0,0,1,.78.78v4.29h4.68v1.56h-4.68v10.28a3.12,3.12,0,0,0,.2,1.25,1.46,1.46,0,0,0,.52.64,1.59,1.59,0,0,0,.76.25,8.25,8.25,0,0,0,.86,0h1.56v1.56Z"/></svg>